<?xml version="1.0" encoding="iso-8859-1"?>
<!-- Generator: Adobe Illustrator 19.0.0, SVG Export Plug-In . SVG Version: 6.00 Build 0)  -->
<svg xmlns="http://www.w3.org/2000/svg" xmlns:xlink="http://www.w3.org/1999/xlink" version="1.1" id="Capa_1" x="0px" y="0px" viewBox="0 0 512.002 512.002" style="enable-background:new 0 0 512.002 512.002;" xml:space="preserve" width="512px" height="512px">
<g>
	<g>
		<path d="M419.576,78.995l-85.333-76.8c-1.57-1.417-3.601-2.193-5.709-2.193H64.001c-4.71,0-8.533,3.823-8.533,8.533v460.8    c0,4.71,3.823,8.533,8.533,8.533h349.867c4.71,0,8.533-3.823,8.533-8.533v-384C422.401,82.92,421.377,80.616,419.576,78.995z     M405.334,460.802h-332.8V17.069h252.723l80.077,72.073V460.802z" fill="#FFFFFF"/>
	</g>
</g>
<g>
	<g>
		<path d="M419.576,78.987l-85.333-76.8c-2.509-2.253-6.101-2.816-9.182-1.451c-3.081,1.374-5.06,4.429-5.06,7.799v76.8    c0,4.71,3.823,8.533,8.533,8.533h85.333c3.533,0,6.699-2.176,7.97-5.478C423.101,85.088,422.205,81.35,419.576,78.987z     M337.068,76.802V27.693l54.562,49.109H337.068z" fill="#FFFFFF"/>
	</g>
</g>
<g>
	<g>
		<path d="M448.001,34.135h-81.544c-3.533,0-6.699,2.176-7.97,5.47c-1.263,3.302-0.367,7.04,2.261,9.404l44.587,40.132v371.661    h-307.2c-4.71,0-8.533,3.823-8.533,8.533v34.133c0,4.71,3.823,8.533,8.533,8.533h349.867c4.71,0,8.533-3.823,8.533-8.533v-460.8    C456.534,37.958,452.711,34.135,448.001,34.135z M439.468,494.935h-332.8v-17.067h307.2c4.71,0,8.533-3.823,8.533-8.533v-384    c0-2.415-1.024-4.719-2.825-6.34l-30.882-27.793h50.773V494.935z" fill="#FFFFFF"/>
	</g>
</g>
<g>
	<g>
		<path d="M260.012,42.669h-153.6c-4.71,0-8.533,3.823-8.533,8.533v162.133c0,4.71,3.823,8.533,8.533,8.533h153.6    c4.71,0,8.533-3.823,8.533-8.533V51.202C268.545,46.492,264.722,42.669,260.012,42.669z M251.478,204.802H114.945V59.735h136.533    V204.802z" fill="#FFFFFF"/>
	</g>
</g>
<g>
	<g>
		<path d="M242.945,247.469H106.668c-4.71,0-8.533,3.823-8.533,8.533s3.823,8.533,8.533,8.533h136.277    c4.71,0,8.533-3.823,8.533-8.533S247.655,247.469,242.945,247.469z" fill="#FFFFFF"/>
	</g>
</g>
<g>
	<g>
		<path d="M370.945,247.469h-42.667c-4.71,0-8.533,3.823-8.533,8.533s3.823,8.533,8.533,8.533h42.667    c4.71,0,8.533-3.823,8.533-8.533S375.655,247.469,370.945,247.469z" fill="#FFFFFF"/>
	</g>
</g>
<g>
	<g>
		<path d="M294.145,247.469h-17.067c-4.71,0-8.533,3.823-8.533,8.533s3.823,8.533,8.533,8.533h17.067    c4.71,0,8.533-3.823,8.533-8.533S298.855,247.469,294.145,247.469z" fill="#FFFFFF"/>
	</g>
</g>
<g>
	<g>
		<path d="M328.278,119.469h-34.133c-4.71,0-8.533,3.823-8.533,8.533c0,4.71,3.823,8.533,8.533,8.533h34.133    c4.71,0,8.533-3.823,8.533-8.533C336.812,123.292,332.989,119.469,328.278,119.469z" fill="#FFFFFF"/>
	</g>
</g>
<g>
	<g>
		<path d="M370.945,119.469h-8.533c-4.71,0-8.533,3.823-8.533,8.533c0,4.71,3.823,8.533,8.533,8.533h8.533    c4.71,0,8.533-3.823,8.533-8.533C379.478,123.292,375.655,119.469,370.945,119.469z" fill="#FFFFFF"/>
	</g>
</g>
<g>
	<g>
		<path d="M328.278,204.802h-34.133c-4.71,0-8.533,3.823-8.533,8.533c0,4.71,3.823,8.533,8.533,8.533h34.133    c4.71,0,8.533-3.823,8.533-8.533C336.812,208.625,332.989,204.802,328.278,204.802z" fill="#FFFFFF"/>
	</g>
</g>
<g>
	<g>
		<path d="M370.945,204.802h-8.533c-4.71,0-8.533,3.823-8.533,8.533c0,4.71,3.823,8.533,8.533,8.533h8.533    c4.71,0,8.533-3.823,8.533-8.533C379.478,208.625,375.655,204.802,370.945,204.802z" fill="#FFFFFF"/>
	</g>
</g>
<g>
	<g>
		<path d="M370.945,162.135h-34.133c-4.71,0-8.533,3.823-8.533,8.533s3.823,8.533,8.533,8.533h34.133    c4.71,0,8.533-3.823,8.533-8.533S375.655,162.135,370.945,162.135z" fill="#FFFFFF"/>
	</g>
</g>
<g>
	<g>
		<path d="M302.678,162.135h-8.533c-4.71,0-8.533,3.823-8.533,8.533s3.823,8.533,8.533,8.533h8.533c4.71,0,8.533-3.823,8.533-8.533    S307.389,162.135,302.678,162.135z" fill="#FFFFFF"/>
	</g>
</g>
<g>
	<g>
		<path d="M370.945,290.135H234.668c-4.71,0-8.533,3.823-8.533,8.533s3.823,8.533,8.533,8.533h136.277    c4.71,0,8.533-3.823,8.533-8.533S375.655,290.135,370.945,290.135z" fill="#FFFFFF"/>
	</g>
</g>
<g>
	<g>
		<path d="M149.334,290.135h-42.667c-4.71,0-8.533,3.823-8.533,8.533s3.823,8.533,8.533,8.533h42.667    c4.71,0,8.533-3.823,8.533-8.533S154.045,290.135,149.334,290.135z" fill="#FFFFFF"/>
	</g>
</g>
<g>
	<g>
		<path d="M200.278,290.135h-16.811c-4.71,0-8.533,3.823-8.533,8.533s3.823,8.533,8.533,8.533h16.811    c4.71,0,8.533-3.823,8.533-8.533S204.989,290.135,200.278,290.135z" fill="#FFFFFF"/>
	</g>
</g>
<g>
	<g>
		<path d="M242.945,332.802H106.668c-4.71,0-8.533,3.823-8.533,8.533s3.823,8.533,8.533,8.533h136.277    c4.71,0,8.533-3.823,8.533-8.533S247.655,332.802,242.945,332.802z" fill="#FFFFFF"/>
	</g>
</g>
<g>
	<g>
		<path d="M370.945,332.802h-42.667c-4.71,0-8.533,3.823-8.533,8.533s3.823,8.533,8.533,8.533h42.667    c4.71,0,8.533-3.823,8.533-8.533S375.655,332.802,370.945,332.802z" fill="#FFFFFF"/>
	</g>
</g>
<g>
	<g>
		<path d="M294.145,332.802h-16.811c-4.71,0-8.533,3.823-8.533,8.533s3.823,8.533,8.533,8.533h16.811    c4.71,0,8.533-3.823,8.533-8.533S298.855,332.802,294.145,332.802z" fill="#FFFFFF"/>
	</g>
</g>
<g>
	<g>
		<path d="M242.945,418.135H106.668c-4.71,0-8.533,3.823-8.533,8.533s3.823,8.533,8.533,8.533h136.277    c4.71,0,8.533-3.823,8.533-8.533S247.655,418.135,242.945,418.135z" fill="#FFFFFF"/>
	</g>
</g>
<g>
	<g>
		<path d="M370.945,418.135h-42.667c-4.71,0-8.533,3.823-8.533,8.533s3.823,8.533,8.533,8.533h42.667    c4.71,0,8.533-3.823,8.533-8.533S375.655,418.135,370.945,418.135z" fill="#FFFFFF"/>
	</g>
</g>
<g>
	<g>
		<path d="M294.145,418.135h-16.811c-4.71,0-8.533,3.823-8.533,8.533s3.823,8.533,8.533,8.533h16.811    c4.71,0,8.533-3.823,8.533-8.533S298.855,418.135,294.145,418.135z" fill="#FFFFFF"/>
	</g>
</g>
<g>
	<g>
		<path d="M370.945,375.469H234.668c-4.71,0-8.533,3.823-8.533,8.533s3.823,8.533,8.533,8.533h136.277    c4.71,0,8.533-3.823,8.533-8.533S375.655,375.469,370.945,375.469z" fill="#FFFFFF"/>
	</g>
</g>
<g>
	<g>
		<path d="M149.334,375.469h-42.667c-4.71,0-8.533,3.823-8.533,8.533s3.823,8.533,8.533,8.533h42.667    c4.71,0,8.533-3.823,8.533-8.533S154.045,375.469,149.334,375.469z" fill="#FFFFFF"/>
	</g>
</g>
<g>
	<g>
		<path d="M200.278,375.469h-16.811c-4.71,0-8.533,3.823-8.533,8.533s3.823,8.533,8.533,8.533h16.811    c4.71,0,8.533-3.823,8.533-8.533S204.989,375.469,200.278,375.469z" fill="#FFFFFF"/>
	</g>
</g>
<g>
	<g>
		<path d="M183.212,76.802c-18.825,0-34.133,15.309-34.133,34.133s15.309,34.133,34.133,34.133    c18.825,0,34.133-15.309,34.133-34.133S202.036,76.802,183.212,76.802z M183.212,128.002c-9.412,0-17.067-7.654-17.067-17.067    c0-9.412,7.654-17.067,17.067-17.067c9.412,0,17.067,7.654,17.067,17.067C200.278,120.348,192.624,128.002,183.212,128.002z" fill="#FFFFFF"/>
	</g>
</g>
<g>
	<g>
		<path d="M197.223,162.135h-28.015c-20.514,0-37.197,16.683-37.197,37.188v14.012c0,4.71,3.823,8.533,8.533,8.533h85.333    c4.71,0,8.533-3.823,8.542-8.533v-14.012C234.42,178.818,217.729,162.135,197.223,162.135z M217.345,204.802h-68.267h-0.009    v-5.478c0-11.093,9.028-20.122,20.13-20.122h28.015c11.102,0,20.13,9.028,20.13,20.122V204.802z" fill="#FFFFFF"/>
	</g>
</g>
<g>
</g>
<g>
</g>
<g>
</g>
<g>
</g>
<g>
</g>
<g>
</g>
<g>
</g>
<g>
</g>
<g>
</g>
<g>
</g>
<g>
</g>
<g>
</g>
<g>
</g>
<g>
</g>
<g>
</g>
</svg>
